<svg xmlns="http://www.w3.org/2000/svg" viewBox="0 0 48 48">
  <defs>
    <linearGradient id="bg" x1="0%" y1="0%" x2="100%" y2="100%">
      <stop offset="0%" stop-color="#0f1f3d"/>
      <stop offset="100%" stop-color="#060e1c"/>
    </linearGradient>
    <linearGradient id="glow" x1="0%" y1="0%" x2="100%" y2="100%">
      <stop offset="0%" stop-color="#60a5fa"/>
      <stop offset="100%" stop-color="#3b82f6"/>
    </linearGradient>
  </defs>
  <rect width="48" height="48" rx="10" fill="url(#bg)"/>
  <circle cx="24" cy="24" r="18" fill="rgba(59,130,246,0.08)"/>
  <g fill="none" stroke="url(#glow)" stroke-linecap="round" stroke-linejoin="round">
    <path d="M8 40 L8 10 Q8 7 11 7 L26 7 Q26 12 21 14 L8 14" stroke-width="2.5"/>
    <path d="M26 7 L37 7 Q40 7 40 10 L40 40 L8 40 Q8 35 13 35 L40 35" stroke-width="2.5"/>
    <line x1="16" y1="20" x2="32" y2="20" stroke-width="2" opacity="0.8"/>
    <line x1="16" y1="26" x2="32" y2="26" stroke-width="2" opacity="0.8"/>
    <line x1="16" y1="32" x2="24" y2="32" stroke-width="2" opacity="0.5"/>
    <path d="M34 4 L44 14 L38 14 L30 8 Z" fill="url(#glow)" stroke="none" opacity="0.95"/>
  </g>
</svg>